<?xml version="1.0" encoding="UTF-8" standalone="no"?>
<!-- Generator: Adobe Illustrator 28.1.0, SVG Export Plug-In . SVG Version: 6.00 Build 0)  -->

<svg
   version="1.1"
   id="Layer_1"
   x="0px"
   y="0px"
   viewBox="0 0 512 512"
   style="enable-background:new 0 0 512 512;"
   xml:space="preserve"
   sodipodi:docname="partnerIconV2.svg"
   inkscape:version="1.3.2 (091e20e, 2023-11-25, custom)"
   xmlns:inkscape="http://www.inkscape.org/namespaces/inkscape"
   xmlns:sodipodi="http://sodipodi.sourceforge.net/DTD/sodipodi-0.dtd"
   xmlns="http://www.w3.org/2000/svg"
   xmlns:svg="http://www.w3.org/2000/svg"><defs
   id="defs7" /><sodipodi:namedview
   id="namedview7"
   pagecolor="#505050"
   bordercolor="#eeeeee"
   borderopacity="1"
   inkscape:showpageshadow="0"
   inkscape:pageopacity="0"
   inkscape:pagecheckerboard="0"
   inkscape:deskcolor="#505050"
   inkscape:zoom="0.73144531"
   inkscape:cx="302.8251"
   inkscape:cy="270.01335"
   inkscape:window-width="1680"
   inkscape:window-height="987"
   inkscape:window-x="-8"
   inkscape:window-y="32"
   inkscape:window-maximized="1"
   inkscape:current-layer="Layer_1" />
<style
   type="text/css"
   id="style1">
	.st0{fill:url(#SVGID_1_);}
	.st1{fill:url(#SVGID_00000113313989701394416470000011147210662309678466_);}
</style>
<linearGradient
   id="SVGID_1_"
   gradientUnits="userSpaceOnUse"
   x1="256"
   y1="63.8262"
   x2="256"
   y2="502.3368">
	<stop
   offset="0"
   style="stop-color:#8CCFDE"
   id="stop1" />
	<stop
   offset="0.3686"
   style="stop-color:#8CCDDC"
   id="stop2" />
	<stop
   offset="0.5509"
   style="stop-color:#8BC6D4"
   id="stop3" />
	<stop
   offset="0.6922"
   style="stop-color:#89BBC7"
   id="stop4" />
	<stop
   offset="0.8125"
   style="stop-color:#86ABB4"
   id="stop5" />
	<stop
   offset="0.9183"
   style="stop-color:#83969C"
   id="stop6" />
	<stop
   offset="1"
   style="stop-color:#808184"
   id="stop7" />
</linearGradient>
<path
   class="st0"
   d="M36.7,493.7l23.7-82.3l47.3-182.3L140,96.8c2.8-12,5.5-24.2,8.1-36.5c1.9-9,4.7-22.6,8.3-40.6  c29.1,0.5,52.7,0.7,70.9,0.7c14.6,0,34.9-0.3,61-1c26.1-0.7,46.8-1,62.1-1c31.4,0,54.1,2.3,67.9,6.9c14.6,5.1,26.7,13.1,36.2,24  c9.5,10.9,15.7,24,18.6,39.2c3.2,17.1,2.7,35.5-1.5,55.2c-6.4,29.9-19.5,57-39.4,81.4c-19.9,24.4-44.1,42.7-72.6,54.7  c-28.5,12-58.6,18.1-90.3,18.1c-15.5,0-31.7-1.6-48.5-4.9c0.1-24.1-0.8-46.7-2.7-67.7c13.4,3,27.1,4.5,41,4.5  c18.9,0,35.8-2.9,50.9-8.7c15.1-5.8,28.1-15.2,39.1-28.3c11-13.1,18.2-27.8,21.7-44.3c2.1-9.7,2.3-18.6,0.6-26.7  c-1.7-8.1-5.3-14.6-10.7-19.4c-5.4-4.9-11.9-8.2-19.4-9.9c-7.5-1.7-18.5-2.6-33-2.6c-12.7,0-25.6,0.2-38.7,0.7  c-13.1,0.5-24.6,0.7-34.6,0.7c-12.4,45.4-23.6,88.8-33.8,130.2L169,354.1c-11.4,47-19.4,81.5-24.1,103.5c-1.8,8.3-4.2,20.4-7.3,36.1  L88.2,493C81.8,493,64.7,493.3,36.7,493.7z"
   id="path7" />
</svg>
