<svg width="4094" height="1203" viewBox="0 0 4094 1203" fill="none" xmlns="http://www.w3.org/2000/svg">
<path d="M208 355L0 1183.5H177L352.5 481.5L515.5 483C515.5 483 535.104 484.289 546.5 489C560.431 494.759 569.039 503.942 577.5 512C598.5 532 585.878 598.401 565 631C549.11 655.81 527.481 677.861 501 691C464.944 708.889 419.789 717.292 380 713.5C361.608 711.747 343.328 707.509 325 705L326.5 828L372.5 833.5C414.871 833.5 459.378 837.243 501 828C524.74 822.728 549.227 814.973 571.5 805.5C621.007 784.444 664.576 751.58 697 708.5C716.988 681.943 736.679 652.27 748 621C755.59 600.034 760.505 579.001 764 557C770.517 515.982 771.27 469.781 751.5 432C733.841 398.254 701.572 373.198 665 363C652.471 359.507 632 358.5 632 358.5L208 355Z" fill="#F5FFF7"/>
<path d="M810 587L765.5 707L896.5 669L951 658C980.266 654.5 1011.2 649.357 1040.5 654.5C1057.82 657.541 1075.27 662.777 1089.5 673.5C1095.59 678.089 1100.11 683.107 1103.5 690C1113.34 710.031 1105.05 731.086 1094 749C1079.5 772.5 1037.6 786.047 1006 794C973.276 802.236 940.098 808 907.5 817C865.116 828.702 822.386 841.734 781.5 858C754.257 868.838 725.171 880.071 700.5 896C680.298 909.043 662.306 925.11 648 944.5C635.938 960.848 625.754 979.819 619 999C613.819 1013.71 610.391 1029.46 609 1045C607.396 1062.92 608.32 1081.96 612.5 1099.5C616.79 1117.51 624.802 1134.72 636 1149.5C654.065 1173.34 681.064 1187.49 710 1194C745.448 1201.98 783.465 1200.5 819.5 1200.5C849.511 1200.5 879.058 1199.83 909 1198L961 1080L905.5 1094.5L878 1099.5C854.307 1099.5 826.923 1103.01 805 1092C787.947 1083.43 778.17 1067.04 775 1048.5C773.254 1038.29 774.715 1025.51 777 1015.5C780.273 1001.17 787.457 987.726 797.5 977C808.13 965.648 822.339 958.066 836 951C855.351 940.991 875.533 933.352 896.5 927.5C916.629 921.882 937.201 917.93 957.5 913C973.216 909.183 988.176 904.58 1003.5 899.5C1020.29 893.935 1036.76 888.693 1053 881.5L1075 871L998 1178.5H1159.5L1293 668.5C1295.05 641.568 1277.1 616.533 1258 599.5C1244.97 587.879 1230.69 578.56 1214.5 572C1181.21 558.513 1145 555.535 1109.5 554C1074.05 552.468 1039.3 554.345 1004 557C971.247 559.463 939.349 561.494 907 567.5C886.115 571.378 865.375 576.041 844.5 580L810 587Z" fill="#F5FFF7"/>
<path d="M1369 565.5L1217.5 1182.5L1388 1185.5L1448 912C1448 912 1457.76 876.841 1466 855C1472.91 836.688 1480.63 818.465 1489.5 801C1499.38 781.546 1512.62 762.063 1528 746.5C1533.35 741.084 1539.05 735.752 1545 731C1559.01 719.817 1574.43 710.381 1591 703.5C1617.55 692.469 1645.55 691.161 1674 694.5C1686.82 697.074 1700.54 699.496 1712.5 705C1715.12 706.205 1719 708.5 1719 708.5L1746.5 559.5C1746.5 559.5 1741.62 559.705 1738.5 559.5C1729.14 558.884 1719.95 557.345 1710.5 557C1695.78 556.463 1681.14 556.017 1666.5 558C1652.37 559.914 1638.81 563.946 1625.5 569C1614.79 573.064 1604.57 577.499 1594.5 583C1585.04 588.167 1575.95 593.787 1567.5 600.5C1557.76 608.24 1548.7 617.121 1539.5 625.5C1530.61 633.598 1521.85 641.856 1513 650L1532.5 565.5H1369Z" fill="#F5FFF7"/>
<path d="M1960 1195.5C1976.62 1192.42 2002 1185 2002 1185L2052.5 1056.5L2027 1070.5C2027 1070.5 2015.17 1075.51 2007.5 1078.5C1995.31 1083.25 1984.13 1086.88 1971 1088C1958.64 1089.06 1946.38 1088.95 1934.5 1085C1917.93 1079.5 1909.6 1068.19 1905.5 1052C1903.01 1042.18 1901.77 1031.59 1903 1021.5C1903.56 1016.94 1905.5 1010 1905.5 1010L1987.5 679.5L2134.5 681L2169 567.5H2014.5L2051.5 411L1889.5 445.5L1858 564H1770L1745 682.5L1827 679.5L1727.5 1055C1727.5 1055 1722.89 1068.81 1722 1078C1720.85 1089.86 1720.27 1104.28 1722 1116C1724.67 1134.06 1732.75 1156.16 1746 1169.5C1775.82 1199.53 1841.5 1203 1870 1203C1900.34 1203 1930.09 1201.03 1960 1195.5Z" fill="#F5FFF7"/>
<path d="M2244.5 563L2080.5 1181.5H2252.5L2321.5 919L2338 862.5C2338 862.5 2344.2 842.974 2349.5 831C2356.55 815.09 2365.3 799.932 2375 785.5C2396.46 753.57 2427.89 724.209 2463 708C2476.97 701.552 2491.91 696.488 2507 693.5C2523.55 690.222 2541.18 688.911 2558 690.5C2574.02 692.013 2591.25 695.38 2605 704C2619.82 713.289 2629.56 726.531 2637.5 742C2642.8 752.314 2646.75 762.063 2649 773.5C2651.18 784.59 2651.84 795.724 2651 807C2650.14 818.455 2647.2 829.384 2644.5 840.5L2548.5 1180.5L2719 1183L2826 776.5C2829.91 760.098 2833.17 751.122 2836 734.5C2840.11 710.355 2840.91 685.363 2834.5 661.5C2830.54 646.787 2825.25 631.878 2817 619C2802.34 596.11 2779.51 579.99 2754.5 570C2714.44 554.003 2668.64 549.878 2626 553C2565.9 557.402 2501.05 574.637 2452.5 611C2429.13 628.502 2408.43 649.806 2386 668.5L2414.5 564.5L2244.5 563Z" fill="#F5FFF7"/>
<path fill-rule="evenodd" clip-rule="evenodd" d="M3394.5 1058L3345.5 1179C3311.17 1185.56 3276.86 1191.38 3242 1194.5C3203.98 1197.9 3166.65 1198.5 3128.5 1198.5C3084.8 1198.5 3036.7 1195.82 2995 1181C2968.72 1171.66 2941.39 1155.41 2921.5 1135.5C2907.17 1121.15 2896.1 1103.26 2887.5 1085C2877.17 1063.08 2870.4 1038.88 2866.5 1015C2862.85 992.671 2862.21 970.061 2863.5 947.5C2864.7 926.45 2867.77 905.544 2872.5 885C2878.88 857.267 2888.47 829.738 2899.5 803.5C2910.12 778.236 2923.17 754.693 2938.5 732C2952.4 711.418 2967.67 693.708 2985 676C3013.54 646.826 3044.52 619.046 3080 598.5C3107.99 582.294 3139.09 569.724 3170.5 562C3208.08 552.757 3248.92 549.358 3287.5 551C3318.67 552.327 3349.87 556.989 3379.5 567C3419.05 580.362 3454.38 602.247 3477.5 637.5C3490.41 657.183 3497.67 678.465 3502 701.5C3510.37 746.024 3505.8 787.566 3495 831L3481 872H3043L3036.5 901.5C3036.21 903.411 3035.91 905.334 3035.62 907.265C3029.74 945.588 3023.29 987.639 3043 1023C3074.21 1079 3138.3 1095.79 3198.5 1095C3226.55 1094.63 3250.65 1089.82 3276.57 1084.64C3284.33 1083.09 3292.26 1081.51 3300.5 1080L3394.5 1058ZM3067 806L3080 776C3087.34 760.743 3095.31 745.233 3106 732C3118.67 716.315 3135.33 703.414 3152.5 693C3168.04 683.576 3184.99 675.926 3202.5 671C3219.35 666.26 3237.01 664 3254.5 664C3280.15 664 3315.21 666.944 3333 688C3339.97 696.254 3345.13 706.084 3348 716.5C3355.45 743.55 3355.51 777.455 3342 802.5L3067 806Z" fill="#F5FFF7"/>
<path d="M3605.5 565.5L3454 1182.5L3624.5 1185.5L3684.5 912C3684.5 912 3694.26 876.841 3702.5 855C3709.41 836.688 3717.13 818.465 3726 801C3735.88 781.546 3749.12 762.063 3764.5 746.5C3769.85 741.084 3775.55 735.752 3781.5 731C3795.51 719.817 3810.93 710.381 3827.5 703.5C3854.05 692.469 3882.05 691.161 3910.5 694.5C3923.32 697.074 3937.04 699.496 3949 705C3951.62 706.205 3955.5 708.5 3955.5 708.5L3983 559.5C3983 559.5 3978.12 559.705 3975 559.5C3965.64 558.884 3956.45 557.345 3947 557C3932.28 556.463 3917.64 556.017 3903 558C3888.87 559.914 3875.31 563.946 3862 569C3851.29 573.064 3841.07 577.499 3831 583C3821.54 588.167 3812.45 593.787 3804 600.5C3794.26 608.24 3785.2 617.121 3776 625.5C3767.11 633.598 3758.35 641.856 3749.5 650L3769 565.5H3605.5Z" fill="#F5FFF7"/>
<path d="M1249 262.5C1221.52 277.164 1181.5 305 1181.5 305C1181.5 305 1222.49 292.586 1249 285.5C1286.61 275.446 1308.01 271.015 1346 262.5C1382.81 254.25 1403.41 249.362 1440.5 242.5C1494.83 232.448 1525.6 228.244 1580.5 222C1631.9 216.155 1660.82 213.272 1712.5 211C1770.44 208.452 1803.04 209.155 1861 211C1908.31 212.506 1934.84 214.009 1982 218C2020.55 221.262 2042.1 223.846 2080.5 228.5C2110.03 232.078 2126.51 234.598 2156 238.5C2179.63 241.626 2192.9 243.149 2216.5 246.5C2242.12 250.138 2256.42 252.609 2282 256.5C2333.74 264.369 2362.79 268.476 2414.5 276.5C2447.9 281.683 2466.58 284.906 2500 290C2526.34 294.016 2541.15 296.004 2567.5 300C2592.7 303.822 2606.91 305.529 2632 310C2662.42 315.42 2679.14 320.213 2709.5 326C2749.58 333.641 2772.16 337.373 2812.5 343.5C2861.95 351.01 2889.72 355.203 2939.5 360C2978.27 363.736 3000.12 364.671 3039 367C3083.88 369.688 3109.07 370.872 3154 372.5C3190.31 373.816 3210.67 375.469 3247 375C3281.6 374.553 3300.92 371.846 3335.5 370.5C3372.97 369.041 3394.07 370.327 3431.5 368C3459.87 366.236 3475.74 364.546 3504 361.5C3529.24 358.78 3568.5 353.5 3568.5 353.5C3568.5 353.5 3529.18 352.17 3504 351C3475.67 349.683 3459.77 349.153 3431.5 347C3393.92 344.138 3372.87 341.936 3335.5 337C3300.81 332.418 3281.52 328.694 3247 323C3210.64 317.003 3190.23 313.753 3154 307C3108.94 298.601 3083.68 293.743 3039 283.5C2999.95 274.547 2978.29 268.525 2939.5 258.5L2933.8 257.028C2887.59 245.086 2859.98 237.951 2812.5 224.5C2772.14 213.066 2749.8 205.651 2709.5 194C2679.28 185.262 2662.25 180.637 2632 172C2606.8 164.806 2592.71 160.664 2567.5 153.5C2541.16 146.013 2526.53 141.277 2500 134.5C2467.04 126.082 2448.17 123.018 2415 115.5C2389.41 109.7 2375.2 105.825 2349.5 100.5C2323.25 95.0598 2308.44 92.4569 2282 87.9999C2256.48 83.6981 2242.18 81.2014 2216.5 77.9999C2192.94 75.0623 2179.66 73.9984 2156 71.9999L2155.26 71.9377C2126.28 69.4892 2109.78 68.0956 2080.5 66.9999C2042.06 65.5616 2020.43 65.4391 1982 66.9999C1934.59 68.9252 1908.02 71.626 1861 77.9999C1802.48 85.9325 1770.05 93.2578 1712.5 106.5C1660.53 118.459 1631.73 126.688 1580.5 141.5C1523.84 157.88 1492.01 167.088 1436.5 187C1400.83 199.794 1381.17 207.883 1346 222C1307.9 237.293 1285.22 243.175 1249 262.5Z" fill="#8CCFDF"/>
<path d="M3981 88C4021.35 63.9791 4063.04 35.9614 4094 0.5C4044.8 18.6556 3995.07 35.3881 3944 47.5C3875.91 63.6495 3805.75 74.3003 3736.5 84C3648.75 96.2906 3561.36 101.105 3473.03 105.971L3472.5 106C3363.72 111.992 3251.96 109.108 3143 106C3015.98 102.377 2950.31 94.848 2824 81C2715.45 69.099 2633.62 59.0637 2546.5 46.5C2499.3 39.6929 2500.51 40.5463 2453.5 32.5C2412.03 25.4026 2322.42 8.34235 2281 1C2337.75 24.3662 2395.92 43.3483 2453.5 64.5C2570.08 107.33 2688.71 142.151 2808.5 175C2920.42 205.69 3033.07 234.01 3148 251C3212.23 260.495 3276.5 267.103 3341.5 267.5C3429.39 268.037 3518.25 259.411 3604.5 242.5C3738.34 216.258 3864.29 157.47 3981 88Z" fill="#808581"/>
</svg>
