<svg viewBox="0 0 1554 1024" fill="none" xmlns="http://www.w3.org/2000/svg" preserveAspectRatio="xMidYMid meet">
<g opacity="0.36">
<path d="M814.129 945.93C805.792 942.449 798.874 938.58 793.575 934.323C764.918 911.298 754.02 886.576 762.878 864.703C778.188 826.911 847.232 808.663 943.048 817.077C980.841 820.392 1009.23 810.171 1020.93 789.019C1030.55 771.625 1027.6 748.477 1013.03 727.092C974.178 670.032 865.124 635.377 709.088 686.55C562.199 734.719 432.17 723.467 338.56 684.377C289.837 664.024 250.991 636.142 224.74 605.146C189.907 564.028 178.422 519.029 192.413 478.432C238.276 345.333 515.959 235.327 522.123 232.899C526.635 230.493 691.24 143.978 848.961 179.143C941.197 199.707 1002.89 241.989 1022.69 298.229C1034.94 333.017 1030.22 371.219 1009.05 408.712C990.884 440.895 986.938 465.572 997.337 482.057C1019.66 517.433 1109.17 515.648 1256.24 476.858C1387.04 442.358 1501.02 472.18 1539.88 551.046C1570.89 614.025 1549.27 695.186 1478.97 779.562C1376.7 902.296 1197.18 944.234 1099.27 958.302C985.341 974.676 869.093 968.89 814.118 945.93H814.129ZM952.194 676.795C980.696 688.701 1002.03 705.641 1015.32 725.152C1030.54 747.501 1033.52 771.902 1023.28 790.427C1010.95 812.71 981.539 823.541 942.583 820.115C829.594 810.193 776.979 837.176 765.406 865.723C757.113 886.177 767.756 909.646 795.349 931.818C867.375 989.72 1300.54 989.399 1476.98 777.633C1546.38 694.355 1567.83 614.458 1537.4 552.675C1499.1 474.918 1386.28 445.64 1256.67 479.829C1106.32 519.484 1018.28 520.87 995.008 483.953C983.967 466.437 987.902 440.651 1006.73 407.315C1027.4 370.709 1032.01 333.449 1020.09 299.559C1000.61 244.218 939.556 202.523 848.185 182.147C689.987 146.882 524.75 234.783 523.109 235.67L522.943 235.748C520.127 236.845 240.659 346.852 195.018 479.297C181.415 518.774 192.734 562.697 226.868 602.995C303.085 692.947 486.304 756.536 708.512 683.668C812.721 649.501 896.243 653.447 952.194 676.817V676.795Z" fill="#2D3182"/>
<path d="M800.305 949.855C793.465 946.995 787.445 943.868 782.323 940.476C747.181 917.151 731.86 889.879 740.274 865.656C753.466 827.676 819.062 806.978 911.465 811.634C950.332 813.596 979.422 801.945 991.284 779.662C1000.78 761.813 998.035 739.63 983.745 718.789C949.113 668.27 849.349 627.861 682.128 680.287C458.755 750.317 280.37 684.278 209.153 593.306C175.806 550.691 166.671 504.385 183.433 462.912C237.356 329.536 507.09 223.088 513.121 220.737C517.733 218.298 690.243 128.313 857.597 167.99C955.931 191.293 1019.85 234.983 1037.55 290.99C1047.97 323.959 1041.84 359.9 1019.82 394.932C1000.94 424.953 996.251 449.852 1006.25 466.925C1028.41 504.751 1119.57 505.549 1262.97 469.198C1390.88 436.771 1501.35 467.845 1537.88 546.489C1567.68 610.655 1541.86 695.696 1467.04 779.806C1357.94 902.451 1183.09 945.686 1088.58 960.542C973.003 978.712 857.841 973.9 800.316 949.877L800.305 949.855ZM925.156 670.454C953.514 682.304 973.779 698.945 986.029 716.826C1000.97 738.633 1003.76 762.024 993.656 781.003C981.196 804.417 951.097 816.678 911.076 814.661C802.234 809.173 752.812 837.842 742.857 866.499C734.953 889.259 749.919 915.266 783.909 937.826C824.805 964.954 942.505 980.43 1088.4 957.504C1182.53 942.704 1356.65 899.679 1465.1 777.766C1538.98 694.721 1564.58 610.988 1535.34 548.03C1499.35 470.517 1390.03 440.019 1263.34 472.135C1116.67 509.318 1026.93 508.132 1003.83 468.699C993.213 450.562 997.947 424.51 1017.54 393.358C1039 359.213 1045 324.237 1034.87 292.198C1017.47 237.122 954.212 194.064 856.744 170.961C688.901 131.162 515.782 222.555 514.052 223.487L513.886 223.564C511.148 224.629 239.651 331.077 185.939 463.932C169.631 504.274 178.633 549.483 211.315 591.222C282.022 681.551 459.332 747.047 681.562 677.382C791.259 642.993 872.264 648.392 925.134 670.476L925.156 670.454Z" fill="url(#paint0_radial_54_4)"/>
<path d="M784.141 952.914C779.374 950.919 775.017 948.824 771.059 946.606C728.567 922.772 708.845 893.515 716.949 866.321C728.356 828.075 790.782 805.027 879.869 806.18C919.923 806.701 949.766 793.553 961.75 770.117C970.919 752.191 968.28 730.484 954.533 710.54C921.253 662.316 822.887 623.803 655.166 674.012C516.136 715.629 396.662 704.964 310.424 668.946C258.397 647.217 218.487 616.265 193.643 581.998C161.549 537.72 154.731 489.906 174.453 447.369C236.424 313.705 498.232 210.826 504.108 208.532C508.819 206.059 689.245 112.593 866.222 156.793C970.564 182.845 1036.58 227.777 1052.17 283.307C1060.95 314.581 1053.48 348.404 1030.57 381.108C1010.78 409.377 1005.43 433.766 1015.11 451.648C1036.9 491.913 1129.69 495.505 1269.68 461.482C1394.67 431.095 1501.72 463.344 1536.05 541.722C1565.12 608.083 1535.61 694.931 1455.1 779.994C1266.16 979.632 903.039 1002.55 784.152 952.903L784.141 952.914ZM899.27 665.132C926.175 676.373 945.299 691.905 956.806 708.578C971.218 729.464 973.89 752.368 964.156 771.414C951.596 795.969 920.776 809.76 879.592 809.228C774.74 807.876 728.19 838.207 719.598 867.031C711.938 892.717 731.216 920.732 772.501 943.879C874.592 1001.13 1257.61 984.632 1453.24 777.921C1532.76 693.889 1562.01 608.36 1533.49 543.241C1499.68 466.038 1393.8 434.376 1270.02 464.464C1128.84 498.775 1035.03 494.729 1012.66 453.378C1002.37 434.376 1007.81 408.801 1028.39 379.412C1050.68 347.584 1057.97 314.736 1049.47 284.438C1034.16 229.883 968.779 185.606 865.357 159.775C687.903 115.453 506.857 210.339 505.05 211.303L504.884 211.381C502.223 212.401 238.686 315.29 176.903 448.555C157.702 489.951 164.443 536.634 195.872 579.991C261.401 670.398 432.913 737.468 654.634 671.096C766.049 637.738 847.209 643.403 899.258 665.143L899.27 665.132Z" fill="url(#paint1_radial_54_4)"/>
<path d="M767.468 956.174C764.807 955.065 762.257 953.923 759.796 952.737C710.286 928.891 685.32 896.753 692.981 866.776C702.847 828.186 762.357 802.887 848.296 800.759C889.636 799.728 920.267 785.028 932.35 760.417C941.131 742.524 938.592 721.372 925.399 702.392C893.438 656.407 796.424 619.735 628.216 667.76C526.291 696.86 427.814 700.397 343.438 677.981C270.037 658.481 211.326 620.577 178.145 571.233C147.581 525.781 142.969 474.985 165.507 431.871C235.515 297.929 489.375 198.61 495.128 196.381C499.94 193.876 688.269 96.9285 874.869 145.652C1016.08 182.524 1057.08 236.502 1066.6 275.281C1073.9 304.98 1065.16 336.819 1041.34 367.339C1020.68 393.802 1014.68 417.67 1023.95 436.339C1045.21 479.086 1139.58 485.627 1276.41 453.832C1398.51 425.452 1502.19 458.832 1534.43 536.878C1562.79 605.512 1529.53 694.222 1443.18 780.25C1351.86 871.255 1218.31 936.851 1067.18 964.976C950.343 986.716 831.789 983.047 767.501 956.196L767.468 956.174ZM873.384 659.789C898.859 670.431 916.874 684.91 927.65 700.408C941.485 720.318 944.08 742.635 934.756 761.647C922.14 787.378 890.545 802.732 848.097 803.785C747.036 806.291 703.08 838.263 695.652 867.342C688.38 895.81 712.847 926.696 761.104 949.944C822.898 979.676 945.742 984.521 1066.92 961.972C1217.51 933.957 1350.48 868.639 1441.38 778.077C1526.7 693.069 1559.66 605.678 1531.84 538.319C1500.1 461.471 1397.58 428.711 1276.72 456.803C1138.68 488.875 1043.26 481.825 1021.45 437.968C1011.73 418.401 1018.05 392.66 1039.25 365.488C1062.4 335.822 1070.91 304.991 1063.88 276.312C1054.52 238.231 1013.98 185.173 873.96 148.612C686.861 99.7555 497.933 198.144 496.037 199.142L495.871 199.219C493.299 200.206 237.722 299.526 167.846 433.212C145.896 475.206 150.474 524.816 180.396 569.316C213.233 618.15 271.445 655.698 344.281 675.043C428.224 697.348 526.225 693.812 627.706 664.844C740.872 632.539 822.177 638.437 873.373 659.822L873.384 659.789Z" fill="url(#paint2_radial_54_4)"/>
<path d="M748.722 958.934L748.511 958.845C691.063 934.767 661.109 900.444 668.392 867.009C676.884 827.986 733.711 800.504 816.701 795.304C859.449 792.622 890.922 776.303 903.028 750.517C911.365 732.779 908.915 712.292 896.31 694.299C865.624 650.487 769.929 615.611 601.233 661.485C469.165 697.404 359.58 688.058 280.181 654.9C226.192 632.351 186.172 598.793 162.492 560.934C132.837 513.508 130.642 460.805 156.494 416.35C234.54 282.121 480.451 186.359 486.082 184.187C490.993 181.637 687.238 81.2195 883.461 134.466C1001.05 166.382 1069.3 212.168 1080.84 266.877C1086.79 295.114 1076.83 325.079 1052.05 353.526C1030.89 377.804 1024.03 401.728 1032.73 420.885C1048.81 456.338 1123.02 481.581 1283.09 446.128C1402.29 419.721 1502.71 454.165 1532.97 531.845C1560.63 602.851 1523.56 693.457 1431.23 780.449C1334.43 871.654 1201.33 937.97 1056.46 967.182C936.619 991.35 818.741 988.179 748.744 958.945L748.722 958.934ZM847.498 654.423C871.555 664.478 888.494 677.925 898.572 692.304C911.808 711.206 914.336 732.846 905.478 751.692C892.851 778.575 860.458 795.57 816.601 798.32C735.019 803.442 679.256 829.926 671.097 867.441C664.157 899.347 693.535 932.439 749.697 955.974L749.908 956.063C819.473 985.12 936.785 988.235 1056.16 964.167C1200.52 935.055 1333.1 869.015 1429.49 778.199C1520.75 692.204 1557.53 602.917 1530.36 533.219C1500.58 456.77 1401.32 422.969 1283.39 449.087C1121.86 484.862 1046.69 458.754 1030.2 422.403C1020.95 402.027 1028.02 376.851 1050.1 351.508C1074.14 323.904 1083.83 294.947 1078.1 267.775C1070.22 230.36 1029.9 177.369 882.552 137.381C685.819 83.991 488.987 185.872 487.013 186.903L486.858 186.969C484.364 187.923 236.768 283.673 158.8 417.758C133.591 461.105 135.797 512.599 164.831 559.017C195.373 607.851 251.069 645.687 321.665 665.553C403.037 688.446 499.552 686.007 600.778 658.481C715.741 627.218 797.19 633.36 847.487 654.379L847.498 654.423Z" fill="url(#paint3_radial_54_4)"/>
<path d="M724.775 960.065C667.172 936.008 636.896 901.775 643.26 867.086C650.51 827.531 704.865 797.943 785.095 789.85C828.729 785.449 861.899 766.979 873.816 740.451C881.776 722.735 879.459 703.49 867.297 686.273C836.434 642.594 743.256 611.498 574.26 655.199C354.003 712.148 200.816 643.936 146.694 551.068C117.815 501.513 118.114 446.748 147.514 400.819C233.586 266.312 471.526 174.109 477.069 171.981C482.08 169.387 686.229 65.4995 892.086 123.269C1015.34 157.868 1085.49 204.507 1094.96 258.153C1099.71 285.025 1088.57 313.228 1062.78 339.702C1040.9 362.151 1033.34 385.465 1041.51 405.331C1056.4 441.56 1130.35 471.969 1289.8 438.434C1406.11 413.967 1503.34 449.431 1531.72 526.69C1558.71 600.146 1517.73 692.714 1419.28 780.649C1183.79 990.995 873.073 1014.97 737.225 964.954C732.946 963.38 728.8 961.75 724.787 960.076L724.775 960.065ZM820.913 648.148C843.629 657.638 859.704 670.343 869.559 684.3C882.363 702.426 884.758 722.768 876.299 741.592C863.905 769.208 829.805 788.387 785.117 792.888C706.284 800.836 652.971 829.394 645.998 867.43C639.568 902.462 674.955 938.691 738.323 962.06C873.583 1011.87 1183.03 987.935 1417.64 778.365C1514.99 691.406 1555.63 600.168 1529.13 528.031C1501.21 452.025 1405.16 417.215 1290.1 441.416C1129.15 475.273 1054.23 443.91 1038.96 406.772C1030.28 385.631 1038.1 361.053 1060.98 337.573C1085.98 311.92 1096.78 284.748 1092.23 258.973C1085.77 222.334 1045.64 169.564 891.177 126.218C684.799 68.3043 480.062 173.666 478.022 174.741L477.867 174.808C475.462 175.728 235.837 267.908 149.776 402.404C121.085 447.236 120.841 500.771 149.111 549.283C202.745 641.33 354.89 708.866 573.872 652.239C690.542 622.074 771.47 627.473 820.936 648.137L820.913 648.148Z" fill="url(#paint4_radial_54_4)"/>
<path d="M701.772 962.116C643.992 937.982 612.241 902.717 617.651 867.042C623.848 826.268 674.633 795.382 753.511 784.418C798.786 778.121 832.887 757.878 844.715 730.251C852.132 712.946 849.87 694.51 838.352 678.347C808.774 636.841 716.782 607.318 547.288 648.935C328.949 702.547 180.717 633.67 130.664 541.645C102.483 489.829 105.354 432.857 138.535 385.321C232.622 250.537 462.591 161.882 468.045 159.808C473.145 157.181 685.209 49.8128 900.689 112.105C1029.45 149.332 1101.49 196.725 1108.98 249.173C1112.64 274.804 1100.37 301.333 1073.51 325.911C1051.29 346.231 1042.83 369.479 1050.28 389.7C1065.69 431.461 1147.77 460.351 1296.49 430.762C1409.96 408.18 1504.06 444.631 1530.66 521.435C1556.98 597.441 1512.04 691.994 1407.33 780.859C1297.32 874.237 1168.57 940.188 1035.02 971.605C921.497 998.301 808.83 998.101 725.917 971.062C717.437 968.291 709.377 965.309 701.761 962.127L701.772 962.116ZM794.994 642.771C816.368 651.696 831.423 663.458 840.614 676.351C852.764 693.401 855.114 712.924 847.221 731.327C834.926 760.017 799.939 780.992 753.621 787.433C677.316 798.042 626.276 828.64 620.4 867.275C614.503 906.12 655.299 944.755 726.937 968.124C890.423 1021.45 1176.1 973.446 1405.76 778.509C1509.33 690.597 1553.91 597.363 1528.06 522.71C1501.91 447.17 1408.95 411.417 1296.77 433.733C1146.62 463.61 1063.48 433.822 1047.7 391.03C1039.76 369.501 1048.55 344.934 1071.85 323.638C1098.22 299.515 1109.79 274.704 1106.25 249.882C1101.14 214.13 1061.18 161.704 899.78 115.043C683.724 52.5732 471.127 161.46 468.998 162.558L468.843 162.624C466.515 163.5 234.872 252.122 140.719 387.006C108.303 433.456 105.532 489.186 133.114 539.915C182.702 631.087 329.891 699.244 546.922 645.953C665.432 616.863 746.471 622.484 794.994 642.749V642.771Z" fill="url(#paint5_radial_54_4)"/>
<path d="M678.203 964.4C619.536 939.888 587.043 904.136 591.621 866.887C596.71 825.414 645.433 792.555 721.937 778.975C768.975 770.627 804.041 748.544 815.725 719.908C822.565 703.135 820.359 685.586 809.506 670.487C781.181 631.098 690.342 603.095 520.349 642.65C420.198 665.952 327.917 665.465 253.497 641.231C188.688 620.123 139.278 581.543 114.389 532.588C86.8295 478.377 92.3614 419.055 129.577 369.811C231.691 234.717 453.766 149.62 459.065 147.614C464.331 144.92 684.267 34.115 909.336 100.919C1043.5 140.763 1117.37 188.81 1122.96 239.916C1125.65 264.383 1112.25 289.338 1084.25 312.086C1061.45 330.611 1052.27 353.16 1059.09 373.946C1073.19 416.982 1155.6 450.706 1303.22 423.057C1413.85 402.327 1504.93 439.698 1529.84 516.047C1541.64 552.188 1537.16 594.204 1516.88 637.55C1494.26 685.907 1453.39 734.187 1395.43 781.048C1131.06 994.709 870.413 1022.44 714.643 977.137C701.606 973.346 689.433 969.067 678.225 964.389L678.203 964.4ZM769.075 637.373C789.13 645.754 803.209 656.618 811.745 668.491C823.231 684.455 825.536 703.091 818.242 720.939C806.125 750.639 770.195 773.454 722.126 781.979C647.029 795.304 599.27 827.099 594.37 867.02C589.116 909.867 635.555 950.952 715.552 974.2C870.701 1019.31 1130.37 991.638 1393.87 778.664C1503.8 689.81 1552.4 594.547 1527.19 517.289C1502.7 442.236 1412.79 405.564 1303.44 426.051C1153.54 454.132 1071.37 420.741 1056.44 375.188C1049.18 353.027 1058.75 329.159 1082.7 309.703C1110.15 287.409 1122.76 264.139 1120.17 240.537C1116.36 205.738 1076.51 153.767 908.36 103.857C682.66 36.8644 462.169 149.232 459.974 150.374L459.819 150.441C457.569 151.283 233.908 236.324 131.65 371.607C95.2438 419.765 89.856 477.834 116.839 530.925C141.417 579.26 190.295 617.385 254.495 638.304C328.483 662.394 420.297 662.871 519.994 639.679C640.411 611.664 721.538 617.495 769.086 637.362L769.075 637.373Z" fill="url(#paint6_radial_54_4)"/>
<path d="M654.668 967.071C594.858 942.083 561.478 905.61 565.192 866.665C569.216 824.416 615.999 789.606 690.331 773.554C739.265 762.978 775.328 739.032 786.791 709.487C793.143 693.135 791.037 676.961 780.694 662.715C753.599 625.389 663.891 598.86 493.366 636.386C371.852 663.125 278.906 653.181 212.556 625.466C154.133 601.066 116.33 562.897 97.7606 523.863C71.1652 467.978 79.7014 404.599 120.598 354.313C230.715 218.93 444.842 137.381 450.042 135.419C455.418 132.681 683.247 18.4061 917.939 89.7336C1057.35 132.104 1133.04 180.761 1136.85 230.438C1138.66 253.851 1124.17 277.298 1094.96 298.262C1071.61 315.013 1061.74 336.83 1067.87 358.115C1081.44 405.287 1168.95 440.097 1309.92 415.364C1417.76 396.451 1505.88 434.709 1529.18 510.571C1553.8 590.723 1499.32 691.905 1383.46 781.247C1079.65 1015.51 845.902 1020.38 703.302 983.224C685.609 978.612 669.323 973.169 654.645 967.038L654.668 967.071ZM741.859 631.242C766.149 641.386 777.9 653.758 782.944 660.709C793.742 675.597 796.026 693.268 789.352 710.463C777.479 741.049 740.584 765.749 690.642 776.536C617.707 792.289 571.844 826.002 567.964 866.709C563.485 913.703 615.7 957.238 704.189 980.297C846.223 1017.3 1079.11 1012.4 1382.01 778.842C1496.72 690.397 1550.75 590.567 1526.55 511.79C1503.65 437.236 1416.68 399.71 1310.14 418.39C1161.07 444.542 1078.69 406.085 1065.22 359.279C1058.68 336.564 1069.02 313.417 1093.6 295.79C1122.2 275.269 1135.82 253.463 1134.09 230.992C1131.5 197.213 1091.72 145.807 916.985 92.6936C681.64 21.1554 453.256 137.027 450.973 138.213L450.818 138.279C448.656 139.089 232.966 220.56 122.615 356.231C82.5727 405.475 74.2138 467.546 100.266 522.289C139.533 604.791 265.969 683.402 493.066 633.415C627.595 603.804 701.794 614.502 741.87 631.242H741.859Z" fill="url(#paint7_radial_54_4)"/>
<path d="M631.187 970.042C570.036 944.5 535.603 907.118 538.43 866.366C541.423 823.274 586.399 786.546 658.747 768.11C723.135 751.703 765.117 714.232 760.838 676.972C754.996 626.165 660.365 589.825 466.415 630.111C240.493 677.05 117.482 597.674 80.7986 515.437C54.7132 456.981 66.2427 390.952 111.629 338.826C229.74 203.155 435.962 125.143 441.039 123.247C446.538 120.453 682.26 2.71945 926.563 78.5701C1071.05 123.435 1148.56 172.613 1150.75 220.804C1151.75 243.231 1136.18 265.248 1105.69 284.46C1081.86 299.47 1071.29 320.545 1076.7 342.251C1086.77 382.66 1158.98 433.445 1316.65 407.703C1421.74 390.542 1506.97 429.665 1528.76 505.039C1552.71 587.951 1493.95 691.284 1371.56 781.48C1236.95 880.678 1116.37 945.032 1002.92 978.246C895.7 1009.63 794.008 1013.27 692.016 989.354C669.6 984.099 649.224 977.592 631.187 970.054V970.042ZM716.949 625.544C745.939 637.661 761.226 655.687 763.599 676.34C768.077 715.308 725.13 754.264 659.146 771.07C588.184 789.152 544.084 824.76 541.202 866.321C538.408 906.508 576.788 959.145 692.814 986.361C900.522 1035.07 1109.41 971.118 1370.13 778.986C1491.33 689.665 1549.63 587.685 1526.07 506.17C1504.68 432.115 1420.58 393.757 1316.8 410.697C1174.23 433.977 1086.72 394.4 1074 343.271C1068.22 320.068 1079.32 297.686 1104.46 281.844C1133.87 263.319 1148.9 242.344 1147.96 221.214C1146.49 188.51 1106.71 137.725 925.588 81.4968C680.597 5.42439 444.31 124.799 441.959 126.007L441.804 126.074C439.72 126.85 232.023 204.74 113.569 340.799C69.0807 391.906 57.7729 456.615 83.3373 513.908C119.644 595.279 241.69 673.746 466.138 627.118C587.685 601.864 670.177 605.977 716.96 625.522L716.949 625.544Z" fill="url(#paint8_radial_54_4)"/>
<path d="M607.33 973.268C535.692 943.347 509.806 900.855 511.37 866.044C513.332 822.044 556.623 783.409 627.163 762.689C693.291 743.267 736.261 704.166 731.638 667.604C725.441 618.593 632.695 586.055 439.454 623.859C341.665 642.993 254.14 639.989 186.349 615.201C127.172 593.55 83.5483 555.236 63.4715 507.3C37.8738 446.172 52.5296 377.416 102.661 323.361C228.764 187.402 427.038 112.937 432.038 111.085C437.67 108.236 681.274 -12.9564 935.2 67.4174C1084.64 114.733 1163.97 164.376 1164.63 211.015C1164.94 232.555 1148.26 253.175 1116.42 270.647C1092.14 283.972 1080.89 304.259 1085.56 326.31C1090.84 351.264 1116.01 374.656 1153 388.935C1184.26 400.996 1239.2 412.714 1323.38 400.032C1425.76 384.589 1508.2 424.521 1528.52 499.407C1551.79 585.157 1488.66 690.674 1359.65 781.691C1075.47 982.148 891.465 1040.1 680.731 995.463C652.218 989.421 627.906 981.871 607.363 973.291L607.33 973.268ZM690.11 619.646C718.368 631.453 732.081 648.68 734.387 666.917C739.221 705.153 695.331 745.739 627.651 765.616C558.474 785.937 516.037 823.43 514.141 865.911C512.201 909.546 555.115 965.686 681.463 992.447C891.388 1036.91 1074.82 979.1 1358.25 779.152C1486.06 688.989 1548.7 584.814 1525.82 500.471C1505.86 426.938 1424.56 387.771 1323.49 403.014C1182.11 424.332 1093.97 379.877 1082.82 327.219C1077.83 303.628 1089.67 282.01 1115.34 267.931C1146.03 251.08 1162.11 231.502 1161.82 211.303C1161.38 179.719 1121.52 129.61 934.191 70.3109C679.556 -10.2957 435.375 112.571 432.936 113.824L432.77 113.89C430.763 114.622 231.059 188.954 104.501 325.389C55.3011 378.436 40.9003 445.872 65.9991 505.804C85.7877 553.063 128.912 590.867 187.413 612.274C254.783 636.918 341.842 639.878 439.177 620.832C566.268 595.966 645.932 601.177 690.099 619.624L690.11 619.646Z" fill="url(#paint9_radial_54_4)"/>
<path d="M584.093 976.805C510.682 946.141 483.266 902.262 484.031 865.69C484.973 820.725 526.679 780.194 595.579 757.257C663.447 734.664 707.415 693.989 702.503 658.347C696.672 616.043 617.219 579.969 412.482 617.573C192.302 658.026 78.6589 583.018 45.7334 499.34C20.9783 436.416 39.3479 363.049 93.6584 307.862C227.733 171.626 418.08 100.698 423.013 98.8796C428.734 95.9972 680.254 -28.6874 943.802 56.2205C1098.04 105.908 1179.2 156.006 1178.48 201.06C1178.16 221.779 1160.4 241.047 1127.13 256.789C1102.43 268.474 1090.51 287.985 1094.43 310.301C1102.58 356.73 1181.08 412.88 1330.06 392.316C1429.78 378.558 1509.5 419.277 1528.42 493.653C1551 582.319 1483.43 690.065 1347.68 781.857C1187.78 889.99 1078.28 950.032 981.506 982.647C878.539 1017.35 782.267 1023.17 669.367 1001.52C635.832 995.086 607.585 986.616 584.071 976.794L584.093 976.805ZM663.835 614.613C690.109 625.588 702.98 641.175 705.253 657.638C710.386 694.909 665.532 737.069 596.155 760.162C528.597 782.644 487.723 822.022 486.802 865.49C485.816 912.617 533.441 972.326 670.088 998.533C882.884 1039.35 1034.57 990.186 1346.37 779.329C1480.89 688.357 1547.95 581.965 1525.74 494.718C1507.16 421.705 1428.56 381.773 1330.16 395.353C1179.52 416.151 1100.02 358.625 1091.68 311.155C1087.48 287.231 1100.06 266.412 1126.2 254.04C1158.26 238.863 1175.38 220.626 1175.68 201.292C1176.17 170.839 1136.17 121.462 942.782 59.1584C678.547 -25.9713 426.428 100.376 423.911 101.673L423.745 101.74C421.827 102.438 230.105 173.189 95.4432 310.013C41.2768 365.055 23.65 435.308 48.2943 497.955C80.8429 580.69 193.544 654.778 412.249 614.591C540.847 590.967 620.533 596.543 663.824 614.624L663.835 614.613Z" fill="url(#paint10_radial_54_4)"/>
<path d="M560.901 980.53C485.572 949.068 456.526 903.704 456.449 865.335C456.371 819.35 496.558 776.913 563.972 751.825C633.559 725.928 678.569 683.746 673.425 649.246C667.272 608.028 588.417 576.411 385.509 611.309C168.112 648.703 58.0832 573.994 27.6076 491.591C3.30705 425.896 25.1687 349.568 84.6675 292.375C226.735 155.84 409.178 88.4477 413.989 86.6961C419.887 83.7361 679.267 -44.3741 952.405 45.0458C1111.33 97.0837 1194.3 147.558 1192.36 191.038C1191.46 211.004 1172.62 228.963 1137.84 242.965C1112.74 253.075 1100.17 271.789 1103.34 294.315C1110.03 341.675 1188.83 403.136 1336.77 384.644C1433.88 372.505 1510.94 413.989 1528.56 487.866C1550.4 579.526 1478.32 689.51 1335.75 782.068C1032.92 978.667 896.032 1049.05 658.048 1007.62C619.48 1000.91 587.331 991.572 560.89 980.53H560.901ZM637.683 608.749C661.873 618.859 673.879 633.038 676.185 648.503C681.562 684.588 635.71 728.256 564.671 754.696C498.587 779.296 459.165 820.547 459.254 865.069C459.364 928.769 537.654 983.534 658.747 1004.62C895.811 1045.88 1032.36 975.652 1334.51 779.496C1475.83 687.748 1547.37 579.105 1525.87 488.875C1508.6 416.373 1432.64 375.709 1336.87 387.671C1187.24 406.373 1107.44 343.449 1100.61 295.036C1097.21 270.857 1110.5 250.836 1137.11 240.127C1160.48 230.715 1188.55 214.585 1189.6 191.171C1190.92 161.848 1150.65 113.203 951.418 47.9837C677.493 -41.6913 417.515 88.1705 414.921 89.4898L414.754 89.5563C412.914 90.2215 229.185 157.392 86.4301 294.593C27.9181 350.821 6.38899 425.796 30.224 490.25C60.3336 571.666 169.454 645.443 385.343 608.305C515.659 585.889 595.357 591.066 637.705 608.749H637.683Z" fill="url(#paint11_radial_54_4)"/>
<path d="M537.754 984.399C460.384 952.072 429.632 905.189 428.678 865.002C427.548 817.233 465.351 774.008 532.388 746.404C603.671 717.059 649.756 673.424 644.435 640.299C638.304 602.041 559.97 572.697 358.548 605.035C262.222 620.5 181.46 615.5 118.502 590.168C63.3381 568.007 25.5458 531.279 9.08305 483.986C-14.7741 415.464 10.746 336.11 75.6769 276.899C225.682 140.097 400.198 76.2308 404.976 74.5125C407.726 73.1378 474.807 39.8465 575.036 18.3285C669.046 -1.84813 812.311 -15.5394 961.019 33.8711C1124.49 88.1705 1209.3 139.033 1206.26 180.938C1204.87 200.217 1184.91 216.879 1148.56 229.118C1123.09 237.699 1109.87 255.625 1112.31 278.296C1117.86 329.857 1201.3 392.815 1343.49 376.951C1438.04 366.408 1512.54 408.612 1528.87 481.991C1538.43 524.971 1527.18 573.728 1496.34 623.005C1461.18 679.178 1403.13 732.757 1323.82 782.256L1302.54 795.537C1003.18 982.448 891.166 1052.39 646.73 1013.7C603.095 1006.79 567.065 996.638 537.743 984.388L537.754 984.399ZM612.042 602.851C632.595 611.431 644.646 623.704 647.184 639.512C652.838 674.733 607.019 718.822 533.164 749.231C467.435 776.292 430.363 818.352 431.461 864.647C433.08 932.871 517.821 990.197 647.373 1010.69C890.855 1049.23 1002.61 979.443 1301.33 792.932L1322.61 779.651C1470.82 687.16 1546.92 576.244 1526.16 482.955C1510.14 410.963 1436.74 369.578 1343.53 379.977C1199.69 396.019 1115.23 331.587 1109.55 278.906C1106.92 254.528 1120.92 235.315 1147.96 226.214C1172.4 217.988 1201.85 203.454 1203.49 180.961C1205.54 152.769 1164.96 104.877 959.999 36.7756C676.473 -57.4224 408.557 75.9204 405.886 77.284L405.719 77.3616C403.968 77.9935 228.221 141.583 77.3619 279.161C13.4509 337.44 -11.7033 415.43 11.7104 482.7C39.5918 562.819 145.308 636.231 358.393 602.03C477.668 582.885 566.079 583.661 612.042 602.862V602.851Z" fill="url(#paint12_radial_54_4)"/>
</g>
<defs>
<radialGradient id="paint0_radial_54_4" cx="0" cy="0" r="1" gradientUnits="userSpaceOnUse" gradientTransform="translate(858.449 566.252) rotate(22.67) scale(523.869 594.306)">
<stop stop-color="#383C8A"/>
<stop offset="1" stop-color="#333687"/>
</radialGradient>
<radialGradient id="paint1_radial_54_4" cx="0" cy="0" r="1" gradientUnits="userSpaceOnUse" gradientTransform="translate(849.93 560.325) rotate(22.67) scale(529.661 600.876)">
<stop stop-color="#434792"/>
<stop offset="0.3" stop-color="#3E428F"/>
<stop offset="1" stop-color="#383C8C"/>
</radialGradient>
<radialGradient id="paint2_radial_54_4" cx="0" cy="0" r="1" gradientUnits="userSpaceOnUse" gradientTransform="translate(841.437 554.475) rotate(22.67) scale(535.809 607.85)">
<stop stop-color="#4E5299"/>
<stop offset="0.47" stop-color="#444794"/>
<stop offset="1" stop-color="#3E4191"/>
</radialGradient>
<radialGradient id="paint3_radial_54_4" cx="0" cy="0" r="1" gradientUnits="userSpaceOnUse" gradientTransform="translate(832.84 548.905) rotate(22.67) scale(542.22 615.124)">
<stop stop-color="#595CA1"/>
<stop offset="0.55" stop-color="#494D99"/>
<stop offset="1" stop-color="#434796"/>
</radialGradient>
<radialGradient id="paint4_radial_54_4" cx="0" cy="0" r="1" gradientUnits="userSpaceOnUse" gradientTransform="translate(824.151 543.557) rotate(22.67) scale(548.961 622.771)">
<stop stop-color="#6467A9"/>
<stop offset="0.06" stop-color="#6164A7"/>
<stop offset="0.61" stop-color="#4F529E"/>
<stop offset="1" stop-color="#494C9B"/>
</radialGradient>
<radialGradient id="paint5_radial_54_4" cx="0" cy="0" r="1" gradientUnits="userSpaceOnUse" gradientTransform="translate(815.358 538.424) rotate(22.67) scale(556.033 630.793)">
<stop stop-color="#6F72B1"/>
<stop offset="0.18" stop-color="#6669AC"/>
<stop offset="0.66" stop-color="#5557A3"/>
<stop offset="1" stop-color="#4F51A0"/>
</radialGradient>
<radialGradient id="paint6_radial_54_4" cx="0" cy="0" r="1" gradientUnits="userSpaceOnUse" gradientTransform="translate(806.289 533.403) rotate(22.67) scale(563.302 639.04)">
<stop stop-color="#7B7DB8"/>
<stop offset="0.27" stop-color="#6C6FB1"/>
<stop offset="0.69" stop-color="#5A5DA8"/>
<stop offset="1" stop-color="#5457A5"/>
</radialGradient>
<radialGradient id="paint7_radial_54_4" cx="0" cy="0" r="1" gradientUnits="userSpaceOnUse" gradientTransform="translate(797.236 528.551) rotate(22.67) scale(570.821 647.57)">
<stop stop-color="#8385C0"/>
<stop offset="0.29" stop-color="#7274B7"/>
<stop offset="0.7" stop-color="#6062AD"/>
<stop offset="1" stop-color="#5A5CAA"/>
</radialGradient>
<radialGradient id="paint8_radial_54_4" cx="0" cy="0" r="1" gradientUnits="userSpaceOnUse" gradientTransform="translate(788.112 523.832) rotate(22.67) scale(578.75 656.565)">
<stop stop-color="#8E90C8"/>
<stop offset="0.35" stop-color="#7879BC"/>
<stop offset="0.73" stop-color="#6667B2"/>
<stop offset="1" stop-color="#6061AF"/>
</radialGradient>
<radialGradient id="paint9_radial_54_4" cx="0" cy="0" r="1" gradientUnits="userSpaceOnUse" gradientTransform="translate(778.859 519.254) rotate(22.67) scale(586.995 665.919)">
<stop stop-color="#999AD0"/>
<stop offset="0.39" stop-color="#7D7FC1"/>
<stop offset="0.75" stop-color="#6B6DB7"/>
<stop offset="1" stop-color="#6567B4"/>
</radialGradient>
<radialGradient id="paint10_radial_54_4" cx="0" cy="0" r="1" gradientUnits="userSpaceOnUse" gradientTransform="translate(769.673 514.719) rotate(22.67) scale(595.346 675.392)">
<stop stop-color="#A4A5D7"/>
<stop offset="0.04" stop-color="#A1A2D5"/>
<stop offset="0.43" stop-color="#8384C6"/>
<stop offset="0.76" stop-color="#7172BC"/>
<stop offset="1" stop-color="#6B6CB9"/>
</radialGradient>
<radialGradient id="paint11_radial_54_4" cx="0" cy="0" r="1" gradientUnits="userSpaceOnUse" gradientTransform="translate(760.22 510.171) rotate(22.67) scale(604.053 685.27)">
<stop stop-color="#AFB0DF"/>
<stop offset="0.1" stop-color="#A6A7DA"/>
<stop offset="0.46" stop-color="#888ACA"/>
<stop offset="0.78" stop-color="#7678C1"/>
<stop offset="1" stop-color="#7072BE"/>
</radialGradient>
<radialGradient id="paint12_radial_54_4" cx="0" cy="0" r="1" gradientUnits="userSpaceOnUse" gradientTransform="translate(750.483 505.552) rotate(22.67) scale(612.879 695.282)">
<stop stop-color="#BABBE7"/>
<stop offset="0.14" stop-color="#ACADDF"/>
<stop offset="0.49" stop-color="#8E8FD0"/>
<stop offset="0.79" stop-color="#7C7DC6"/>
<stop offset="1" stop-color="#7677C3"/>
</radialGradient>
</defs>
</svg>
